# xmcd
#
# Track frame offsets: 
#        150
#        26747
#        39800
#        54010
#        73745
#        95377
#        108667
#        122102
#        147115
#        164357
#        178927
#        201905
#        226472
#        243927
#        264907
#        288035
#
# Disc length: 4110 seconds
#
# Revision: 2
# Processed by: cddbd v1.5.2PL0 Copyright (c) Steve Scherf et al.
# Submitted via: ExactAudioCopy v1.3
#
DISCID=da100c10
DTITLE=ちあきなおみ - RE.MASTER VOICE
DYEAR=1900
DGENRE=
TTITLE0=東京の花売娘
TTITLE1=ダンスパーティーの夜
TTITLE2=遠くへ行きたい
TTITLE3=赤と黒のブルース
TTITLE4=黒い花びら
TTITLE5=宵待草
TTITLE6=星影の小径
TTITLE7=雨に咲く花
TTITLE8=港が見える丘
TTITLE9=雨のブルース
TTITLE10=夜霧のブルース
TTITLE11=夜霧よ今夜も有難う
TTITLE12=粋な別れ
TTITLE13=泣かせるぜ
TTITLE14=放(ほか)されて
TTITLE15=上海帰りのリル
EXTD=
EXTT0=
EXTT1=
EXTT2=
EXTT3=
EXTT4=
EXTT5=
EXTT6=
EXTT7=
EXTT8=
EXTT9=
EXTT10=
EXTT11=
EXTT12=
EXTT13=
EXTT14=
EXTT15=
PLAYORDER=
